<mxfile host="Electron" modified="2023-12-07T16:35:29.123Z" agent="Mozilla/5.0 (X11; Linux x86_64) AppleWebKit/537.36 (KHTML, like Gecko) draw.io/22.0.3 Chrome/114.0.5735.289 Electron/25.8.4 Safari/537.36" etag="ztqyBPtwvqODeHZyzRYH" version="22.0.3" type="device">
  <diagram name="Page-1" id="hqzfzX1RxmWnnn2Tod_g">
    <mxGraphModel dx="989" dy="534" grid="1" gridSize="10" guides="1" tooltips="1" connect="1" arrows="1" fold="1" page="1" pageScale="1" pageWidth="850" pageHeight="1100" math="0" shadow="0">
      <root>
        <mxCell id="0" />
        <mxCell id="1" parent="0" />
        <mxCell id="1I_2qR1qmit_H8bqgxco-1" value="Actor" style="shape=umlActor;verticalLabelPosition=bottom;verticalAlign=top;html=1;fillColor=#1ba1e2;fontColor=#ffffff;strokeColor=#006EAF;" vertex="1" parent="1">
          <mxGeometry x="80" y="110" width="30" height="60" as="geometry" />
        </mxCell>
        <mxCell id="1I_2qR1qmit_H8bqgxco-2" value="" style="html=1;points=[];perimeter=orthogonalPerimeter;fillColor=#1ba1e2;fontColor=#ffffff;strokeColor=#006EAF;" vertex="1" parent="1">
          <mxGeometry x="92.5" y="200" width="5" height="180" as="geometry" />
        </mxCell>
        <mxCell id="1I_2qR1qmit_H8bqgxco-3" value="" style="html=1;verticalAlign=bottom;labelBackgroundColor=none;endArrow=block;endFill=1;" edge="1" parent="1">
          <mxGeometry width="160" relative="1" as="geometry">
            <mxPoint x="97.5" y="220" as="sourcePoint" />
            <mxPoint x="257.5" y="220" as="targetPoint" />
          </mxGeometry>
        </mxCell>
        <mxCell id="1I_2qR1qmit_H8bqgxco-4" value="1: drop() : T" style="text;html=1;strokeColor=none;fillColor=none;align=left;verticalAlign=middle;whiteSpace=wrap;rounded=0;" vertex="1" parent="1">
          <mxGeometry x="100" y="190" width="160" height="30" as="geometry" />
        </mxCell>
        <mxCell id="1I_2qR1qmit_H8bqgxco-6" value="" style="endArrow=none;dashed=1;html=1;startArrow=none;" edge="1" parent="1" source="1I_2qR1qmit_H8bqgxco-8">
          <mxGeometry width="50" height="50" relative="1" as="geometry">
            <mxPoint x="264.5" y="730" as="sourcePoint" />
            <mxPoint x="264.5" y="190" as="targetPoint" />
          </mxGeometry>
        </mxCell>
        <mxCell id="1I_2qR1qmit_H8bqgxco-7" value="" style="endArrow=none;dashed=1;html=1;" edge="1" parent="1" target="1I_2qR1qmit_H8bqgxco-8">
          <mxGeometry width="50" height="50" relative="1" as="geometry">
            <mxPoint x="263" y="410" as="sourcePoint" />
            <mxPoint x="264.5" y="190" as="targetPoint" />
          </mxGeometry>
        </mxCell>
        <mxCell id="1I_2qR1qmit_H8bqgxco-8" value="" style="html=1;points=[];perimeter=orthogonalPerimeter;fillColor=#1ba1e2;fontColor=#ffffff;strokeColor=#006EAF;" vertex="1" parent="1">
          <mxGeometry x="260" y="200" width="5" height="180" as="geometry" />
        </mxCell>
        <mxCell id="1I_2qR1qmit_H8bqgxco-9" value="stack:Stack" style="rounded=0;whiteSpace=wrap;html=1;fillColor=#1ba1e2;fontColor=#ffffff;strokeColor=#006EAF;" vertex="1" parent="1">
          <mxGeometry x="202.5" y="130" width="120" height="60" as="geometry" />
        </mxCell>
        <mxCell id="1I_2qR1qmit_H8bqgxco-17" value="1.2: pop(): T" style="text;html=1;strokeColor=none;fillColor=none;align=left;verticalAlign=middle;whiteSpace=wrap;rounded=0;" vertex="1" parent="1">
          <mxGeometry x="265" y="250" width="195" height="30" as="geometry" />
        </mxCell>
        <mxCell id="1I_2qR1qmit_H8bqgxco-19" value="alt" style="shape=umlFrame;whiteSpace=wrap;html=1;pointerEvents=0;" vertex="1" parent="1">
          <mxGeometry x="90" y="240" width="320" height="130" as="geometry" />
        </mxCell>
        <mxCell id="1I_2qR1qmit_H8bqgxco-20" value="[!isEmpty()]" style="text;html=1;align=center;verticalAlign=middle;resizable=0;points=[];autosize=1;strokeColor=none;fillColor=none;" vertex="1" parent="1">
          <mxGeometry x="155" y="240" width="80" height="30" as="geometry" />
        </mxCell>
        <mxCell id="1I_2qR1qmit_H8bqgxco-21" value="" style="endArrow=none;dashed=1;html=1;dashPattern=1 3;strokeWidth=2;rounded=0;" edge="1" parent="1">
          <mxGeometry width="50" height="50" relative="1" as="geometry">
            <mxPoint x="80" y="310.34000000000003" as="sourcePoint" />
            <mxPoint x="410" y="310" as="targetPoint" />
          </mxGeometry>
        </mxCell>
        <mxCell id="1I_2qR1qmit_H8bqgxco-23" value="[else]" style="text;html=1;align=center;verticalAlign=middle;resizable=0;points=[];autosize=1;strokeColor=none;fillColor=none;" vertex="1" parent="1">
          <mxGeometry x="100" y="305" width="50" height="30" as="geometry" />
        </mxCell>
        <mxCell id="1I_2qR1qmit_H8bqgxco-28" value="1.1: isEmpty(): boolean&amp;nbsp;" style="text;html=1;strokeColor=none;fillColor=none;align=left;verticalAlign=middle;whiteSpace=wrap;rounded=0;" vertex="1" parent="1">
          <mxGeometry x="265" y="190" width="195" height="30" as="geometry" />
        </mxCell>
        <mxCell id="1I_2qR1qmit_H8bqgxco-31" value="" style="html=1;verticalAlign=bottom;labelBackgroundColor=none;endArrow=block;endFill=1;rounded=0;" edge="1" parent="1">
          <mxGeometry width="160" relative="1" as="geometry">
            <mxPoint x="355" y="230" as="sourcePoint" />
            <mxPoint x="264.99999999999994" y="230" as="targetPoint" />
          </mxGeometry>
        </mxCell>
        <mxCell id="1I_2qR1qmit_H8bqgxco-32" value="" style="endArrow=none;html=1;rounded=0;" edge="1" parent="1">
          <mxGeometry width="50" height="50" relative="1" as="geometry">
            <mxPoint x="264.99999999999994" y="220" as="sourcePoint" />
            <mxPoint x="355" y="220" as="targetPoint" />
          </mxGeometry>
        </mxCell>
        <mxCell id="1I_2qR1qmit_H8bqgxco-33" value="" style="endArrow=none;html=1;rounded=0;" edge="1" parent="1">
          <mxGeometry width="50" height="50" relative="1" as="geometry">
            <mxPoint x="355" y="230" as="sourcePoint" />
            <mxPoint x="355" y="220" as="targetPoint" />
            <Array as="points" />
          </mxGeometry>
        </mxCell>
        <mxCell id="1I_2qR1qmit_H8bqgxco-34" value="" style="html=1;verticalAlign=bottom;labelBackgroundColor=none;endArrow=block;endFill=1;rounded=0;" edge="1" parent="1">
          <mxGeometry width="160" relative="1" as="geometry">
            <mxPoint x="355" y="290" as="sourcePoint" />
            <mxPoint x="264.99999999999994" y="290" as="targetPoint" />
          </mxGeometry>
        </mxCell>
        <mxCell id="1I_2qR1qmit_H8bqgxco-35" value="" style="endArrow=none;html=1;rounded=0;" edge="1" parent="1">
          <mxGeometry width="50" height="50" relative="1" as="geometry">
            <mxPoint x="264.99999999999994" y="280" as="sourcePoint" />
            <mxPoint x="355" y="280" as="targetPoint" />
          </mxGeometry>
        </mxCell>
        <mxCell id="1I_2qR1qmit_H8bqgxco-36" value="" style="endArrow=none;html=1;rounded=0;" edge="1" parent="1">
          <mxGeometry width="50" height="50" relative="1" as="geometry">
            <mxPoint x="355" y="290" as="sourcePoint" />
            <mxPoint x="355" y="280" as="targetPoint" />
            <Array as="points" />
          </mxGeometry>
        </mxCell>
        <mxCell id="1I_2qR1qmit_H8bqgxco-37" value="1.3: return pop()" style="text;html=1;strokeColor=none;fillColor=none;align=left;verticalAlign=middle;whiteSpace=wrap;rounded=0;" vertex="1" parent="1">
          <mxGeometry x="100" y="270" width="195" height="30" as="geometry" />
        </mxCell>
        <mxCell id="1I_2qR1qmit_H8bqgxco-38" value="" style="html=1;verticalAlign=bottom;labelBackgroundColor=none;endArrow=block;endFill=1;rounded=0;exitX=0.824;exitY=1.016;exitDx=0;exitDy=0;exitPerimeter=0;" edge="1" parent="1" source="1I_2qR1qmit_H8bqgxco-37">
          <mxGeometry width="160" relative="1" as="geometry">
            <mxPoint x="187.5" y="299.31" as="sourcePoint" />
            <mxPoint x="97.49999999999994" y="299.31" as="targetPoint" />
          </mxGeometry>
        </mxCell>
        <mxCell id="1I_2qR1qmit_H8bqgxco-39" value="1.3: return null" style="text;html=1;strokeColor=none;fillColor=none;align=left;verticalAlign=middle;whiteSpace=wrap;rounded=0;" vertex="1" parent="1">
          <mxGeometry x="98.75" y="330" width="195" height="30" as="geometry" />
        </mxCell>
        <mxCell id="1I_2qR1qmit_H8bqgxco-40" value="" style="html=1;verticalAlign=bottom;labelBackgroundColor=none;endArrow=block;endFill=1;rounded=0;exitX=0.824;exitY=1.016;exitDx=0;exitDy=0;exitPerimeter=0;" edge="1" parent="1" source="1I_2qR1qmit_H8bqgxco-39">
          <mxGeometry width="160" relative="1" as="geometry">
            <mxPoint x="186.25" y="359.31" as="sourcePoint" />
            <mxPoint x="96.24999999999994" y="359.31" as="targetPoint" />
          </mxGeometry>
        </mxCell>
      </root>
    </mxGraphModel>
  </diagram>
</mxfile>
